<svg xmlns="http://www.w3.org/2000/svg" viewBox="0 0 64 64" width="64" height="64">
  <defs>
    <linearGradient id="z1" x1="0%" y1="0%" x2="100%" y2="100%"><stop offset="0%" stop-color="#FFD700"/><stop offset="100%" stop-color="#F97316"/></linearGradient>
    <linearGradient id="z2" x1="0%" y1="0%" x2="0%" y2="100%"><stop offset="0%" stop-color="#F97316"/><stop offset="100%" stop-color="#C2410C"/></linearGradient>
  </defs>
  <rect width="64" height="64" rx="16" fill="#050505"/>
  <g transform="translate(32, 32) rotate(45) scale(0.24) translate(-110, -140)">
    <path d="M110,20 C180,20 220,90 220,180 C220,260 170,320 110,340 C110,340 110,150 110,20 Z" fill="url(#z1)"/>
    <path d="M110,20 C40,20 0,90 0,180 C0,260 60,300 110,320 C110,320 110,150 110,20 Z" fill="url(#z2)" opacity="0.85"/>
    <circle cx="110" cy="100" r="14" fill="white" opacity="0.9"/><circle cx="110" cy="185" r="18" fill="white"/><circle cx="110" cy="270" r="14" fill="white" opacity="0.9"/>
  </g>
</svg>