<svg xmlns="http://www.w3.org/2000/svg" viewBox="0 0 64 64" width="64" height="64">
  <defs>
    <linearGradient id="z_g" x1="0%" y1="0%" x2="100%" y2="100%"><stop offset="0%" stop-color="#FDE047"/><stop offset="100%" stop-color="#EAB308"/></linearGradient>
    <linearGradient id="z_f" x1="0%" y1="0%" x2="0%" y2="100%"><stop offset="0%" stop-color="#CA8A04"/><stop offset="100%" stop-color="#854D0E"/></linearGradient>
  </defs>
  <rect width="64" height="64" rx="16" fill="#050505"/>
  <g transform="translate(32, 32) rotate(45) scale(0.28) translate(-100, -100)">
    <path d="M100,20 C140,20 180,60 180,110 C180,160 140,180 100,190 L100,20 Z" fill="url(#z_f)"/>
    <path d="M100,20 C60,20 20,60 20,110 C20,160 60,180 100,190 C140,180 180,160 180,110 C180,60 140,20 100,20 Z" fill="url(#z_g)"/>
    <circle cx="100" cy="65" r="9" fill="white" opacity="0.9"/><circle cx="100" cy="105" r="11" fill="white"/><circle cx="100" cy="145" r="9" fill="white" opacity="0.9"/>
  </g>
</svg>