<svg xmlns="http://www.w3.org/2000/svg" viewBox="0 0 64 64" width="64" height="64">
  <defs>
    <linearGradient id="leaf_top_icon" x1="0%" y1="0%" x2="100%" y2="100%">
      <stop offset="0%" stop-color="#FB923C"/>
      <stop offset="100%" stop-color="#EA580C"/>
    </linearGradient>
    <linearGradient id="leaf_inside_icon" x1="0%" y1="0%" x2="0%" y2="100%">
      <stop offset="0%" stop-color="#F97316"/>
      <stop offset="100%" stop-color="#9A3412"/>
    </linearGradient>
  </defs>
  
  <rect width="64" height="64" rx="14" fill="#050505"/>
  
  <!-- 3D Falling Leaf at 45 Degree Angle -->
  <g transform="translate(32, 32) rotate(45) translate(-25, -28)">
    <!-- Inside fold -->
    <path d="M34,28 C36,38 30,50 20,54 C16,55 14,54 14,52 C14,44 10,36 6,30 C4,26 4,18 8,14 C8,14 22,16 24,30" 
          fill="url(#leaf_inside_icon)" opacity="0.9"/>
    <!-- Top surface -->
    <path d="M14,8 C6,8 0,16 0,26 C0,38 8,48 18,52 C20,53 22,52 22,50 C22,42 26,34 30,28 C32,24 32,18 28,13 C25,10 20,8 14,8 Z" 
          fill="url(#leaf_top_icon)"/>
  </g>
</svg>