<svg xmlns="http://www.w3.org/2000/svg" viewBox="0 0 260 72" width="260" height="72">
  <defs>
    <linearGradient id="z_grad_logo" x1="0%" y1="0%" x2="100%" y2="100%">
      <stop offset="0%" stop-color="#FFD700"/>
      <stop offset="100%" stop-color="#F97316"/>
    </linearGradient>
  </defs>

  <!-- Zapia-Style Icon (Shifted and sized for header) -->
  <g transform="translate(4, 8) scale(0.8) rotate(45, 25, 25)">
    <path d="M22,5 C32,5 42,12 42,26 C42,40 32,50 22,54 C19,55 17,53 17,50 C17,44 15,36 12,30 C10,26 10,20 14,16 C16,13 19,12 22,5 Z" 
          fill="url(#z_grad_logo)"/>
    <path d="M19,10 C19,10 30,12 32,24 C34,34 29,44 24,48 C22,49 21,48 21,46 C21,40 18,34 15,28 C13,24 13,18 16,14 Z" 
          fill="white" opacity="0.3"/>
    <circle cx="22" cy="20" r="2.5" fill="white" opacity="0.8"/>
    <circle cx="28" cy="30" r="3" fill="white" opacity="0.9"/>
    <circle cx="34" cy="40" r="2.5" fill="white" opacity="0.8"/>
  </g>

  <!-- THE ORIGINAL GEORGIA WORDMARK (DO NOT TOUCH) -->
  <text x="52" y="45" font-family="Georgia, serif" font-weight="900" font-size="34" fill="#F97316" letter-spacing="-1">Calalloo</text>
</svg>