<svg xmlns="http://www.w3.org/2000/svg" viewBox="0 0 260 72" width="260" height="72">
  <defs>
    <linearGradient id="zg" x1="0%" y1="0%" x2="100%" y2="100%"><stop offset="0%" stop-color="#FDE047"/><stop offset="100%" stop-color="#EAB308"/></linearGradient>
    <linearGradient id="zf" x1="0%" y1="0%" x2="0%" y2="100%"><stop offset="0%" stop-color="#CA8A04"/><stop offset="100%" stop-color="#854D0E"/></linearGradient>
  </defs>
  <!-- Zapia-Style Leaf Icon -->
  <g transform="translate(6, 12) scale(0.18) rotate(45, 100, 100)">
    <path d="M100,20 C140,20 180,60 180,110 C180,160 140,180 100,190 L100,20 Z" fill="url(#zf)"/>
    <path d="M100,20 C60,20 20,60 20,110 C20,160 60,180 100,190 C140,180 180,160 180,110 C180,60 140,20 100,20 Z" fill="url(#zg)"/>
    <circle cx="100" cy="65" r="10" fill="white" opacity="0.9"/><circle cx="100" cy="105" r="12" fill="white"/><circle cx="100" cy="145" r="10" fill="white" opacity="0.9"/>
  </g>
  <!-- THE ORIGINAL GEORGIA WORDMARK (UNTOUCHED) -->
  <text x="52" y="45" font-family="Georgia, serif" font-weight="900" font-size="34" fill="#F97316" letter-spacing="-1">Calalloo</text>
</svg>