<svg xmlns="http://www.w3.org/2000/svg" viewBox="0 0 260 72" width="260" height="72">
  <defs>
    <linearGradient id="ls" x1="0%" y1="0%" x2="100%" y2="100%">
      <stop offset="0%" stop-color="#FFB347"/><stop offset="100%" stop-color="#F97316"/>
    </linearGradient>
    <linearGradient id="ld" x1="0%" y1="0%" x2="0%" y2="100%">
      <stop offset="0%" stop-color="#EA580C"/><stop offset="100%" stop-color="#9A3412"/>
    </linearGradient>
  </defs>

  <!-- Professional 3D Falling Leaf Icon -->
  <g transform="translate(4, 10) scale(0.8) rotate(45, 25, 25)">
    <path d="M44,28 C46,38 40,50 30,54 C26,55 24,54 24,52 C24,44 20,36 16,30 C14,26 14,18 18,14 C18,14 32,16 34,30" fill="url(#ld)"/>
    <path d="M22,8 C14,8 8,16 8,26 C8,38 18,48 28,52 C30,53 32,52 32,50 C32,42 36,34 40,28 C42,24 42,18 38,13 C35,10 30,8 22,8 Z" fill="url(#ls)"/>
    <!-- The Dots -->
    <circle cx="22" cy="18" r="2" fill="white" opacity="0.9"/>
    <circle cx="28" cy="28" r="2.5" fill="white"/>
    <circle cx="34" cy="38" r="2" fill="white" opacity="0.9"/>
  </g>

  <!-- ORIGINAL GEORGIA WORDMARK (DO NOT TOUCH) -->
  <text x="52" y="45" font-family="Georgia, serif" font-weight="900" font-size="34" fill="#F97316" letter-spacing="-1">Calalloo</text>
</svg>