<svg xmlns="http://www.w3.org/2000/svg" viewBox="0 0 200 70" width="200" height="70">
  <path d="M18,8 C10,8 4,16 4,26 C4,38 12,48 22,52 C24,53 26,52 26,50 C26,42 30,34 34,28 C36,24 36,18 32,13 C29,10 24,8 18,8 Z" fill="#F97316" opacity="0.95"/>
  <path d="M22,12 C22,12 36,14 38,28 C40,38 34,50 28,54 C26,55 24,54 24,52 C24,44 20,36 16,30 C14,26 14,18 18,14 Z" fill="#F97316" opacity="0.55"/>
  <text x="52" y="45" font-family="Georgia, serif" font-weight="900" font-size="34" fill="#F97316" letter-spacing="-1">Calalloo</text>
</svg>